<svg width="133" height="36" viewBox="0 0 133 36" fill="none" xmlns="http://www.w3.org/2000/svg">
<path d="M0.0239868 35V1.40002H16.872C19.08 1.40002 21.016 1.84802 22.68 2.74402C24.376 3.64002 25.704 4.88802 26.664 6.48802C27.624 8.05602 28.104 9.88002 28.104 11.96C28.104 13.944 27.624 15.72 26.664 17.288C25.704 18.856 24.376 20.088 22.68 20.984C20.984 21.88 19.048 22.328 16.872 22.328H6.98399V35H0.0239868ZM6.98399 16.568H16.104C17.608 16.568 18.808 16.152 19.704 15.32C20.632 14.488 21.096 13.384 21.096 12.008C21.096 10.6 20.632 9.48002 19.704 8.64802C18.808 7.81602 17.608 7.40002 16.104 7.40002H6.98399V16.568Z" fill="#141414"/>
<path d="M42.1601 35.48C39.6641 35.48 37.3921 34.904 35.3441 33.752C33.3281 32.6 31.7281 31.048 30.5441 29.096C29.3601 27.144 28.7681 24.952 28.7681 22.52C28.7681 20.088 29.3281 17.896 30.4481 15.944C31.6001 13.992 33.1521 12.44 35.1041 11.288C37.0561 10.136 39.2321 9.56002 41.6321 9.56002C44.0321 9.56002 46.1601 10.152 48.0161 11.336C49.8721 12.52 51.3281 14.12 52.3841 16.136C53.4721 18.152 54.0161 20.44 54.0161 23V24.728H35.4881C35.7761 25.72 36.2401 26.616 36.8801 27.416C37.5521 28.216 38.3681 28.84 39.3281 29.288C40.3201 29.736 41.3761 29.96 42.4961 29.96C43.6161 29.96 44.6401 29.784 45.5681 29.432C46.5281 29.08 47.3441 28.584 48.0161 27.944L52.3361 31.88C50.8001 33.128 49.2161 34.04 47.5841 34.616C45.9841 35.192 44.1761 35.48 42.1601 35.48ZM35.3921 20.024H47.5361C47.3121 19.032 46.8961 18.168 46.2881 17.432C45.7121 16.664 45.0081 16.072 44.1761 15.656C43.3761 15.208 42.4801 14.984 41.4881 14.984C40.4641 14.984 39.5361 15.192 38.7041 15.608C37.8721 16.024 37.1681 16.616 36.5921 17.384C36.0481 18.12 35.6481 19 35.3921 20.024Z" fill="#141414"/>
<path d="M69.8006 35.336C67.4326 35.336 65.2886 34.76 63.3686 33.608C61.4486 32.456 59.9126 30.92 58.7606 29C57.6406 27.048 57.0806 24.872 57.0806 22.472C57.0806 20.072 57.6406 17.912 58.7606 15.992C59.9126 14.04 61.4646 12.504 63.4166 11.384C65.3686 10.232 67.5606 9.65602 69.9926 9.65602C71.2406 9.65602 72.4406 9.83202 73.5926 10.184C74.7446 10.504 75.8166 10.984 76.8086 11.624V1.40002L83.3846 0.296021V35H76.9046V32.936C74.8566 34.536 72.4886 35.336 69.8006 35.336ZM70.8566 29.72C72.0726 29.72 73.1766 29.528 74.1686 29.144C75.1926 28.728 76.0726 28.12 76.8086 27.32V17.576C76.0726 16.84 75.1926 16.264 74.1686 15.848C73.1446 15.432 72.0406 15.224 70.8566 15.224C69.4806 15.224 68.2326 15.544 67.1126 16.184C66.0246 16.792 65.1606 17.656 64.5206 18.776C63.8806 19.864 63.5606 21.096 63.5606 22.472C63.5606 23.848 63.8806 25.08 64.5206 26.168C65.1606 27.256 66.0246 28.12 67.1126 28.76C68.2326 29.4 69.4806 29.72 70.8566 29.72Z" fill="#141414"/>
<path d="M88.5139 35V9.99202H95.0899V12.776C95.8899 11.688 96.8499 10.856 97.9699 10.28C99.0899 9.70402 100.354 9.41602 101.762 9.41602C102.978 9.44802 103.89 9.64002 104.498 9.99202V15.752C104.018 15.528 103.49 15.368 102.914 15.272C102.338 15.144 101.746 15.08 101.138 15.08C99.8579 15.08 98.6899 15.4 97.6339 16.04C96.5779 16.68 95.7299 17.592 95.0899 18.776V35H88.5139Z" fill="#141414"/>
<path d="M119.315 35.48C116.819 35.48 114.563 34.904 112.547 33.752C110.531 32.6 108.931 31.048 107.747 29.096C106.563 27.144 105.971 24.952 105.971 22.52C105.971 20.088 106.547 17.896 107.699 15.944C108.883 13.96 110.483 12.392 112.499 11.24C114.547 10.088 116.819 9.51202 119.315 9.51202C121.811 9.51202 124.067 10.088 126.083 11.24C128.131 12.392 129.731 13.96 130.883 15.944C132.067 17.896 132.659 20.088 132.659 22.52C132.659 24.952 132.067 27.144 130.883 29.096C129.731 31.048 128.147 32.6 126.131 33.752C124.115 34.904 121.843 35.48 119.315 35.48ZM119.315 29.768C120.627 29.768 121.795 29.448 122.819 28.808C123.875 28.168 124.707 27.304 125.315 26.216C125.955 25.096 126.275 23.864 126.275 22.52C126.275 21.144 125.955 19.912 125.315 18.824C124.707 17.736 123.875 16.872 122.819 16.232C121.795 15.56 120.627 15.224 119.315 15.224C118.035 15.224 116.867 15.56 115.811 16.232C114.755 16.872 113.923 17.736 113.315 18.824C112.707 19.912 112.403 21.144 112.403 22.52C112.403 23.864 112.707 25.096 113.315 26.216C113.923 27.304 114.755 28.168 115.811 28.808C116.867 29.448 118.035 29.768 119.315 29.768Z" fill="#141414"/>
</svg>
